
        <svg xmlns="http://www.w3.org/2000/svg" xmlns:xlink="http://www.w3.org/1999/xlink" version="1.1" width="3146.3414634146343" 
        height="2100.840980641612" viewBox="0 0 3146.3414634146343 2100.840980641612">
			
			<g transform="scale(7.317073170731708) translate(10, 10)">
				<defs id="SvgjsDefs1145"><linearGradient id="SvgjsLinearGradient1152"><stop id="SvgjsStop1153" stop-color="#51504f" offset="0"></stop><stop id="SvgjsStop1154" stop-color="#939598" offset="0.5"></stop><stop id="SvgjsStop1155" stop-color="#51504f" offset="1"></stop></linearGradient></defs><g id="SvgjsG1146" featureKey="symbolFeature-0" transform="matrix(1.7907099543619798,0,0,1.7907099543619798,115.74202939932823,-10.242860563244625)" fill="url(#SvgjsLinearGradient1152)"><title xmlns="http://www.w3.org/2000/svg">10</title><path xmlns="http://www.w3.org/2000/svg" d="M93.85,51.79c-1.95.52-2.48,1.56-4,2.41-1.25-2.3-3.9-5.38-2.25-8.5a15.91,15.91,0,0,0-3.82,3.72,10.76,10.76,0,0,1-4.51-8.51,7.48,7.48,0,0,1,1.42-4.32c-2.62-1.67-4-2.48-7.29-3C67.26,18.27,47.83,8.28,42.32,5.72c4.89,4.48,17.79,16.9,20.15,22.46A55.22,55.22,0,0,1,56.94,26a5.18,5.18,0,0,0,0,.7,13.67,13.67,0,0,0,.44,3.14,51.18,51.18,0,0,1-8.61-1.07c-13-6.37-22.92-9.68-41.58-11,8.38,2.31,25.56,11.48,34.45,18.77.15,3.7,2,7.39,3.78,10.91a81.38,81.38,0,0,0-10.83-1.64c5.77,4.7,3.75,9.51,14,13.84a27.12,27.12,0,0,0-5,2.78h.16c5.5,0,8.48,3.14,16.43,5.41a27.31,27.31,0,0,0-4.84,2.41c10,.71,7.88,7.47,21.75,9.12l1.16,1.82S80.67,80,80.8,75.41a16.47,16.47,0,0,0-.66-4c-2.22,1.66-2.47,2.81-5.45,3.14-1.76-.9-4.4-1.62-6-3.55,1,.08,2,.12,2.93.12s1.89,0,2.84-.1a26.59,26.59,0,0,1-8.1-4.29,20.16,20.16,0,0,0,4.9.83c-5.28-2.67-8.67-7-8.67-11.62a9.62,9.62,0,0,1,.82-3.87C66,53.34,70,54.66,72.92,56.55a9.77,9.77,0,0,1-3.8,3.25,8.42,8.42,0,0,0,.9.05,28.21,28.21,0,0,0,8.46-1.92,4.53,4.53,0,0,1,0,.52,6.86,6.86,0,0,1-2.09,4.28,20.24,20.24,0,0,0,6.84-1.93,5.63,5.63,0,0,1,.2,1.5A6.53,6.53,0,0,1,82,66.21a24.21,24.21,0,0,0,4.11-2.51,18,18,0,0,1,1.17,2.79A5.44,5.44,0,0,1,94,67.81c0-.24.52-4.41.52-4.65C94.53,58.56,91.88,56.12,93.85,51.79ZM61.44,39.94c6.66,1.16,7,3.67,9.51,8.44C64.82,46.91,63.81,44.19,61.44,39.94Z"></path><path xmlns="http://www.w3.org/2000/svg" d="M38.69,59.22A68.24,68.24,0,0,0,6.16,68.47c3.52-8.58,11.71-17.89,23.12-21C33.24,50.31,36.14,54.68,38.69,59.22Z"></path><path xmlns="http://www.w3.org/2000/svg" d="M31.42,65.66c2.79,5.29,3.88,7.52,8.1,12.55-9.62-.27-23.45-4-30.06,2.48C12.43,71.77,23.5,65.81,31.42,65.66Z"></path><path xmlns="http://www.w3.org/2000/svg" d="M5.17,46.18s11.39-16.52,29.56-10.9L38.2,44C30.45,40.78,12.43,43.54,5.17,46.18Z"></path><path xmlns="http://www.w3.org/2000/svg" d="M37.7,65.5s3.14,6.6,7.43,10.24l9.74-1.49C52.07,71.11,45,67.65,37.7,65.5Z"></path><path xmlns="http://www.w3.org/2000/svg" d="M18.05,81.52a43.08,43.08,0,0,0,11.89,1.65A29.45,29.45,0,0,0,41.83,80s9.74,10.9,30.05,10.24C71.88,90.27,37.2,104.31,18.05,81.52Z"></path></g><g id="SvgjsG1147" featureKey="nameFeature-0" transform="matrix(0.06258762707095177,0,0,0.06258762707095177,198.89985984742145,178.834768941486)" fill="#545454"><path d="M9.44 35.56 c0 2.6 -1.28 4.44 -3.72 4.44 l-0.44 0 c-0.88 -0.08 -1.84 -0.56 -2.2 -1.16 l0 6.12 l-1.48 0 l0 -36.36 l1.48 0 l0 0.92 c0.4 -0.64 1.2 -1.08 2.2 -1.12 c0.24 -0.04 0.28 -0.04 0.44 -0.04 c2.48 0.04 3.72 1.88 3.72 4.44 l0 22.76 z M7.92 34.44 l0 -20.52 c0 -2.76 -0.52 -4.04 -2.4 -4.04 c-1.92 0 -2.44 1.24 -2.44 4.04 l0 20.52 c0 2.8 0.52 4.04 2.44 4.04 c1.88 0 2.4 -1.24 2.4 -4.04 z M54.400000000000006 9.84 c-1.88 0 -2.4 1.28 -2.4 4.08 l0 3.84 c0 2.6 0.72 3.56 2.92 5.96 c1.84 2.04 2.52 2.96 2.88 3.88 c0.44 0.96 0.52 2.2 0.52 3.8 l0 4.4 c0 2.6 -1.24 4.44 -3.68 4.44 l-0.44 0 c-2.44 0 -3.72 -1.84 -3.72 -4.44 l0 -6.96 l1.52 0 l0 5.84 c0 2.8 0.52 4.04 2.4 4.04 c1.92 0 2.44 -1.24 2.44 -4.04 l0 -3.84 c0 -2.64 -0.72 -3.56 -2.92 -5.96 c-1.96 -2.2 -2.52 -2.92 -2.88 -3.88 c-0.4 -0.96 -0.52 -2.24 -0.56 -3.84 l0 -4.36 c0 -2.6 1.28 -4.44 3.72 -4.44 l0.44 0 c2.44 0 3.68 1.84 3.68 4.44 l0 6.96 l-1.48 0 l0 -5.84 c0 -2.8 -0.52 -4.08 -2.44 -4.08 z M105.60000000000001 8.600000000000001 l1.52 0 l0 31.92 c0 2.6 -1.24 4.44 -3.72 4.44 l-0.4 0 l0 -1.52 l0.2 0 c1.88 0 2.36 -1.4 2.36 -2.68 c0 -2.6 -0.64 -3.56 -2.84 -5.96 c-1.88 -2.04 -2.52 -2.96 -2.92 -3.88 c-0.4 -0.96 -0.52 -2.2 -0.52 -3.8 l0 -18.52 l1.52 0 l0 19.08 c0 2.6 0.72 3.56 2.88 5.96 c0.92 1 1.52 1.68 1.92 2.24 l0 -27.28 z M152.4 8.36 c2.48 0 3.72 1.88 3.72 4.44 l0 22.76 c0 2.6 -1.24 4.44 -3.72 4.44 l-0.44 0 c-1 -0.08 -1.96 -0.6 -2.2 -1.2 c0 0.52 -0.28 1.2 -0.28 1.2 l-1.52 0 c0.08 -0.32 0.32 -1 0.32 -2.04 l0 -35.32 l1.52 0 l0 6.92 c0.36 -0.6 1.28 -1.12 2.2 -1.2 l0.4 0 z M154.6 34.44 l0 -20.52 c0 -2.76 -0.48 -4.04 -2.4 -4.04 s-2.4 1.24 -2.4 4.04 l0 20.52 c0 2.8 0.48 4.04 2.4 4.04 s2.4 -1.24 2.4 -4.04 z M198.68 13.879999999999999 l0 26.12 l-1.52 0 l0 -31.4 l1.52 0 l0 0.84 c0.4 -0.64 1.2 -1.08 2.2 -1.12 l0.44 0 l0 1.48 l-0.24 0 c-1.88 0 -2.4 1.28 -2.4 4.08 z"></path></g><g id="SvgjsG1148" featureKey="sloganFeature-0" transform="matrix(7.335444305783198,0,0,7.335444305783198,-0.0000017489062084634775,112.48378260601017)" fill="#ff6b6b"><path d="M2.64 10.84 l2.54 0 l2.16 2.14 l0 4.34 l0 0.58 l-2.16 2.1 l-2.54 0 l-1.64 0 l0 0 l-1 0 s0.88 -0.3 1 -1.52 l0 -1.72 l-0.54 -0.52 l0.54 -0.54 l0 -3.34 c-0.12 -1.22 -1 -1.52 -1 -1.52 l1 0 l0 0 l1.64 0 z M2.64 16.759999999999998 l0 1.62 l2 0 l1.06 -1.08 l0 -3.72 l-1.1 -1.12 l-1.96 0 l0 3.26 l0.52 0.52 z M9.939 10.84 l3.66 0 l1.04 1.08 l0 1.6 l-1.64 -0.54 l0 -0.52 l-3.06 0 l0 3.24 l1.44 0 l0 0 l0.54 0.54 l-0.54 0.54 l0 0 l0 0 l0 0 l0 0 l-1.44 0 l0 1.6 l3.06 0 l0 -0.52 l1.64 -0.54 l0 1.6 l-1.04 1.08 l-3.66 0 l-1.64 0 l0 0 l-1 0 s0.88 -0.3 1 -1.52 l0 -1.72 l-0.54 -0.52 l0.54 -0.54 l0 -3.34 c-0.12 -1.22 -1 -1.52 -1 -1.52 l1 0 l0 0 l1.64 0 z M22.438000000000002 18.56 c0.14 1.18 0.98 1.46 0.98 1.46 l-0.98 0 l0 0 l-1.64 0 l0 0 l-1 0 s0.9 -0.3 1 -1.52 l0 -1.72 l-0.52 -0.52 l0.52 -0.54 l0 -2.7 l-1.1 0.92 l-0.7 0.6 l-0.68 -0.6 l-1.1 -0.94 l0 2.72 l0.54 0.54 l-0.54 0.52 l0 1.72 c0.12 1.22 1 1.52 1 1.52 l-1 0 l0 0 l-1.64 0 l0 0 l-0.98 0 s0.86 -0.28 0.98 -1.46 l0 -1.82 l-0.48 -0.48 l0.48 -0.48 l0 -3.32 l0 0 l1.24 -1.6 l0.4 0 l0 0 l1.78 1.54 l1.8 -1.52 l0 -0.02 l0.4 0 l1.24 1.6 l0 0 l0 3.32 l0.48 0.48 l-0.48 0.48 l0 1.82 z M25.617 18.54 c0.12 1.18 0.98 1.46 0.98 1.46 l-0.98 0 l0 0 l-1.64 0 l0 0 l-1 0 s0.88 -0.3 1 -1.52 l0 -1.72 l-0.54 -0.52 l0.54 -0.54 l0 -3.34 c-0.12 -1.22 -1 -1.52 -1 -1.52 l1 0 l0 0 l0.38 0 l1.24 1.6 l0.02 0 l0 3.32 l0.48 0.48 l-0.48 0.48 l0 1.82 z M34.256 10.86 c0 0 -0.92 0.32 -1 1.58 l0 3.32 l0.54 0.54 l-0.54 0.52 l0 1.62 l0 -0.02 l-0.02 0.02 l0 0 l0 0.02 l-0.54 0.68 l-0.68 0.88 l-0.4 0 l-2.62 0 l0 0 l-0.4 0 l-1.22 -1.56 l0 -0.02 l-0.02 0 l0 -0.02 l0 0.02 l0 -1.64 l-0.54 -0.54 l0.54 -0.52 l0 -3.3 c-0.1 -1.26 -1 -1.58 -1 -1.58 l1 0 l0.02 0 l0.38 0 l1.24 1.58 l0 3.32 l0.5 0.5 l-0.5 0.52 l0 1.62 l2.62 0 l0 -1.58 l-0.52 -0.52 l0.52 -0.52 l0 -3.34 l1.22 -1.58 l0.4 0 l0 0 l1.02 0 z M41.075 18.26 l0.02 1.88 l-0.2 0.22 l0 0 l-0.72 0.72 s0.42 -0.86 -0.4 -1.82 l-3.52 -3.52 l0 4.3 l-1.64 0 l0 0 l-1 0 s0.88 -0.3 1 -1.52 l0 -2.84 l-0.54 -0.52 l0.54 -0.54 l0 -2.24 c-0.12 -1.22 -1 -1.52 -1 -1.52 l1 0 l0 0 l1.64 0 l0 0 l3.48 0 l1.36 2.38 l-1.36 2.26 l-1.4 0 z M38.675000000000004 12.280000000000001 l-2.42 0 l0 1.78 l2.36 0 l0.68 -0.84 z M43.894000000000005 10.84 l3.66 0 l1.04 1.08 l0 1.6 l-1.64 -0.54 l0 -0.52 l-3.06 0 l0 3.26 l0.52 0.52 l-0.52 0.52 l0 1.62 l3.06 0 l0 -1.06 l-0.48 0 l-1.12 -1.62 l1.6 0 l0.2 0 l1.44 0 l0 3.22 l-1.04 1.08 l-3.66 0 l-1.64 0 l0 0 l-1 0 s0.88 -0.3 1 -1.52 l0 -1.72 l-0.54 -0.52 l0.54 -0.54 l0 -3.34 c-0.12 -1.22 -1 -1.52 -1 -1.52 l1 0 l0 0 l1.64 0 z M51.193000000000005 10.84 l3.66 0 l1.04 1.08 l0 1.6 l-1.64 -0.54 l0 -0.52 l-3.06 0 l0 3.24 l1.44 0 l0 0 l0.54 0.54 l-0.54 0.54 l0 0 l0 0 l0 0 l0 0 l-1.44 0 l0 1.6 l3.06 0 l0 -0.52 l1.64 -0.54 l0 1.6 l-1.04 1.08 l-3.66 0 l-1.64 0 l0 0 l-1 0 s0.88 -0.3 1 -1.52 l0 -1.72 l-0.54 -0.52 l0.54 -0.54 l0 -3.34 c-0.12 -1.22 -1 -1.52 -1 -1.52 l1 0 l0 0 l1.64 0 z"></path></g>
			</g>
		</svg>
	